# xmcd CD database file
#
# Track frame offsets:
#	150
#	14022
#	31184
#	45338
#	57603
#	80810
#	100091
#	116614
#	138588
#
# Disc length: 2250 seconds
#
# Revision: 0
# Processed by: cddbd v1.5.1PL0 Copyright (c) Steve Scherf et al.
# Submitted via: CDex 1.51
#
DISCID=7708c809
DTITLE=SUSAN - DO YOU BELIEVE IN MAZIK
DYEAR=1980
DGENRE=Synthpop
TTITLE0=MODERN FLOWERS IN A BOOT
TTITLE1=24,000回のキッス
TTITLE2=DREAM OF YOU
TTITLE3=DO YOU BELIEVE IN MAZIK?
TTITLE4=AH! SOKA
TTITLE5=FREEZIN' FISH UNDER THE MOONLIGHT(Eatin' my backbone)
TTITLE6=GLASS GIRL
TTITLE7=IT'S NO TIME FOR YOU TO CRY
TTITLE8=SCREAMER
EXTD=YEAR: 1980
EXTT0=
EXTT1=
EXTT2=
EXTT3=
EXTT4=
EXTT5=
EXTT6=
EXTT7=
EXTT8=
PLAYORDER=
